<svg width="122" height="35" viewBox="0 0 122 35" fill="none" xmlns="http://www.w3.org/2000/svg">
<path d="M44.0253 13.7189V23.8273H41.4782V13.7189H37.3348V11.4659H48.1486V13.7189H44.0253ZM48.9308 18.7229H52.3682C52.3121 17.6827 51.7826 17.004 50.6996 17.004C49.6728 17.004 48.999 17.6305 48.9308 18.7229ZM48.9308 20.3253C48.9869 21.3815 49.6287 22.0602 50.7157 22.0602C51.554 22.0602 52.1035 21.7149 52.284 21.1245L54.7107 21.2329C54.4139 22.8514 52.7774 24.008 50.7799 24.008C48.1807 24.008 46.3757 22.3052 46.3757 19.5622C46.3757 16.8032 48.1767 15.1165 50.7157 15.1165C53.1664 15.1165 54.7909 16.7068 54.7909 19.3695V20.3293H48.9308V20.3253ZM61.1123 17.5301C59.7245 17.5301 58.8501 18.3213 58.8501 19.498V23.8273H56.4435V15.2851H58.7699V16.257C59.1309 15.6948 59.8127 15.2008 61.1123 15.2008V17.5301ZM75.5521 18.5863V23.8313H73.1455V19.0642C73.1455 17.9759 72.6441 17.3614 71.7215 17.3614C70.8672 17.3614 70.3337 17.9277 70.2415 18.7831V23.8273H67.8268V19.0602C67.8268 17.9719 67.3174 17.3574 66.439 17.3574C65.4844 17.3574 64.9028 18.0522 64.9028 19.0803V23.8193H62.4881V15.2771H64.7664V16.1566C65.1434 15.5622 65.8413 15.1124 67.0086 15.1124C68.1838 15.1124 69.1224 15.5904 69.6799 16.4699C70.1813 15.6948 71.0196 15.1124 72.3031 15.1124C74.2645 15.1205 75.5521 16.4217 75.5521 18.5863ZM77.2969 23.8273H79.7035V15.2851H77.2969V23.8273ZM79.9522 12.494C79.9522 13.2851 79.3104 13.9277 78.4962 13.9277C77.69 13.9277 77.0642 13.2851 77.0642 12.494C77.0642 11.6827 77.7221 11.0442 78.4962 11.0442C79.3104 11.0361 79.9522 11.6827 79.9522 12.494ZM89.3701 18.6024V23.8273H86.9635V19.0642C86.9635 17.9759 86.3779 17.3614 85.4594 17.3614C84.5047 17.3614 83.871 18.0562 83.871 19.0803V23.8273H81.4644V15.2851H83.7346V16.1606C84.1197 15.5703 84.8697 15.1205 86.0289 15.1205C88.0064 15.1205 89.3701 16.3896 89.3701 18.6024ZM94.5163 20.4699C93.7783 20.506 93.2689 20.751 93.2689 21.3655C93.2689 21.9317 93.686 22.1405 94.2556 22.1405C95.142 22.1405 95.7998 21.6626 95.7998 20.751V20.3855L94.5163 20.4699ZM98.2065 18.5542V23.8273H95.8801V23.1285C95.4028 23.6225 94.6808 24.008 93.7021 24.008C91.9853 24.008 90.8663 23.1285 90.8663 21.4819C90.8663 19.5823 92.4627 18.9719 94.2837 18.8875L95.8039 18.8032V18.4739C95.8039 17.6104 95.4429 17.1526 94.7008 17.1526C93.8786 17.1526 93.5095 17.7149 93.5095 18.2771L91.1029 18.1807C91.1029 16.6747 92.4747 15.1245 94.6687 15.1245C96.955 15.1205 98.2065 16.3092 98.2065 18.5542ZM100.064 23.8273H102.474V10.988H100.064V23.8273ZM109.369 19.4578V15L106.361 19.4578H109.369ZM113.248 19.4578V21.2128H111.315V23.8072H109.389V21.2128H104.211V19.5944L109.67 11.4498H111.315V19.4618H113.248V19.4578ZM119.537 16.9478C119.826 16.5462 119.99 16.0522 119.99 15.4096C119.99 13.9438 119.072 13.0281 117.74 13.0281C116.441 13.0281 115.498 13.9438 115.498 15.4096C115.498 16.8795 116.437 17.739 117.74 17.739C118.514 17.743 119.14 17.4779 119.537 16.9478ZM122 15.3454C122 16.3855 121.663 17.1968 121.122 17.9518L116.858 23.8032H114.515L117.704 19.4578C115.298 19.4257 113.529 17.7871 113.529 15.3454C113.529 12.8675 115.346 11.2811 117.752 11.2811C120.183 11.2811 122 12.8675 122 15.3454ZM15.1417 0L0 8.74296V26.249L10.4167 32.2731V27.6747L3.97896 23.9518V11.0442L15.1417 4.59437L26.3045 11.0442V23.9518L19.8587 27.6747V32.2731L30.2754 26.249V8.74296" fill="#2AC983"/>
<path d="M23.4685 12.7177L15.1416 7.89844L6.80664 12.7177V17.312L13.1521 13.6454V33.8542L15.1416 34.9988L17.131 33.8542V13.6454L23.4685 17.312" fill="#2AC983"/>
</svg>
