<svg xmlns="http://www.w3.org/2000/svg" viewBox="850 1050 17900 3700" shape-rendering="geometricPrecision">
  <g transform="translate(2545.62 2912) scale(0.6) translate(-2545.62 -2912)">
    <path d="M3946.45 2115.77V2880.41L2879.84 2270.34V5632.79L2545.64 5824L2211.38 5632.79V2270.34L1144.77 2880.41V2115.77L2545.64 1314.54L3946.45 2115.77ZM5091.24 1456.01V4367.98L3339.35 5370.04V4605.4L4422.77 3985.71V1838.33L2545.62 764.643L668.465 1838.33V3985.71L1751.89 4605.35V5370.04L0 4367.98V1456.01L2545.62 0L5091.24 1456.01Z" fill="#fff"/>
  </g>
  <g transform="translate(-1550 0) translate(13400 2912) scale(0.92) translate(-13400 -2912)">
    <path d="M8528.1 2516.04C8941.6 2516.04 9213.6 2780.02 9213.6 3222.68V3382.17H8228.37C8236.68 3558.11 8344.91 3670.82 8528.1 3670.82C8669.66 3670.82 8761.23 3613.12 8791.79 3514.13L9199.75 3533.38C9149.76 3802.83 8875 3995.29 8539.23 3995.29C8100.71 3995.29 7798.21 3712.07 7798.21 3255.64C7798.21 2796.52 8100.71 2516.04 8528.1 2516.04ZM15918.2 2516.09C16303.9 2516.09 16514.9 2714.03 16514.9 3087.97V3965.07H16123.5V3849.56C16043.1 3932.05 15920.9 3995.29 15757.2 3995.29C15468.6 3995.29 15279.8 3849.56 15279.8 3574.62C15279.8 3258.43 15549 3156.69 15854.3 3142.93L16109.7 3129.22V3074.21C16109.7 2931.22 16048.6 2854.27 15923.7 2854.27C15785 2854.27 15723.9 2947.73 15723.9 3041.24L15318.7 3024.73C15318.7 2774.53 15549 2516.09 15918.2 2516.09ZM8087.09 2288.75H7401.15V3985.34H6978.63V2288.75H6289.96V1911.72H8087.09V2288.75ZM14468.3 2516.09C14798.5 2516.09 15028.9 2727.75 15028.9 3096.2V3965.07H14623.6V3173.2C14623.6 2991.72 14526.5 2889.98 14371.1 2889.98C14210.1 2889.98 14104.7 3005.48 14104.7 3175.95V3965.07H13699.5V2543.57H14082.5V2689.3C14146.3 2590.3 14274 2516.09 14468.3 2516.09ZM17231.7 3965.07H16826.4V1828.71H17231.7V3965.07ZM13402.7 3965.06H12997.5V2543.56H13402.7V3965.06ZM12160.4 2516.08C12487.9 2516.08 12704.4 2733.27 12704.4 3093.44V3965.05H12299.2V3173.19C12299.2 2991.7 12215.9 2889.96 12060.6 2889.96C11916.2 2889.96 11827.4 2983.47 11810.8 3126.46V3965.05H11405.6V3173.19C11405.6 2991.7 11319.5 2889.96 11172.4 2889.96C11011.5 2889.96 10914.3 3005.47 10914.3 3175.93V3965.05H10509.1V2543.56H10892.1V2689.28C10955.9 2590.29 11072.5 2516.08 11269.5 2516.08C11466.6 2516.08 11624.8 2595.77 11719.2 2741.5C11802.4 2612.28 11944 2516.08 12160.4 2516.08ZM10276.4 2917.48C10043.3 2917.48 9896.19 3049.44 9896.19 3244.69V3965.03H9491V2543.54H9882.3V2705.77C9943.36 2612.31 10057.1 2529.83 10276.4 2529.83V2917.48ZM18718.9 3238.68H19043.6V3530.13H18718.9V3961.82H18394.2V3530.13H17522.7V3260.67L18441.3 1905.16H18718.9V3238.68ZM19801.3 1877.69C20209.2 1877.69 20514.5 2141.61 20514.5 2554.05C20514.5 2727.26 20459 2862.01 20367.5 2988.49L19651.4 3961.78H19257.3L19793 3238.69C19390.5 3233.21 19090.8 2960.96 19090.8 2554.05C19090.8 2141.61 19396.1 1877.69 19801.3 1877.69ZM15893.2 3406.9C15771.1 3412.39 15685 3453.63 15685 3555.37C15685 3648.88 15754.4 3684.59 15851.6 3684.59C15998.7 3684.59 16109.7 3604.89 16109.7 3453.63V3393.14L15893.2 3406.9ZM17886.2 3238.68H18391.3V2496.34L17886.2 3238.68ZM8525.33 2829.49C8353.27 2829.49 8239.45 2933.97 8228.37 3115.45H8805.63C8797.33 2942.25 8708.47 2829.49 8525.33 2829.49ZM19801.3 2169.14C19582 2169.14 19423.8 2320.36 19423.8 2565.08C19423.8 2809.8 19582 2952.73 19801.3 2952.73C19928.9 2952.73 20034.4 2908.74 20101 2820.77C20150.9 2754.79 20178.7 2672.3 20178.7 2565.08C20178.7 2320.36 20023.3 2169.14 19801.3 2169.14ZM13200.1 1836.93C13336.1 1836.93 13444.3 1944.15 13444.3 2078.91C13444.3 2210.87 13336.1 2318.09 13200.1 2318.09C13064.1 2318.09 12958.6 2210.87 12958.6 2078.91C12958.6 1944.15 13069.6 1836.93 13200.1 1836.93Z" fill="#fff"/>
  </g>
</svg>
